<?xml version="1.0" encoding="UTF-8"?><svg id="G_bunt" xmlns="http://www.w3.org/2000/svg" xmlns:xlink="http://www.w3.org/1999/xlink" viewBox="0 0 773.47 828.14"><defs><style>.cls-1{fill:url(#Mustereditor-Objekt_2-2);}.cls-2{fill:url(#Mustereditor-Objekt_2-3);}.cls-3{fill:#fff;}.cls-4{fill:#7f1718;}.cls-5{clip-path:url(#clippath-2);}.cls-6{fill:url(#Mustereditor-Objekt_2);}.cls-7{stroke:#7f1718;}.cls-7,.cls-8{stroke-width:7px;}.cls-7,.cls-8,.cls-9,.cls-10{stroke-miterlimit:10;}.cls-7,.cls-11{fill:none;}.cls-12{clip-path:url(#clippath-1);}.cls-13{clip-path:url(#clippath-4);}.cls-8,.cls-9{fill:#1d1c1b;stroke:#fff;}.cls-14{font-family:Iglesia-Light, Iglesia;font-size:40px;font-weight:300;}.cls-14,.cls-15{fill:#16140a;}.cls-10{fill:#d5ae85;stroke:#16140a;stroke-width:4px;}.cls-16{fill:#1f2d51;}.cls-17{clip-path:url(#clippath);}.cls-18{clip-path:url(#clippath-3);}</style><clipPath id="clippath"><path class="cls-11" d="m340.84,726.98s-61.12-36.98-89.6-59.1c-29.19-22.68-64.48-59.52-64.48-59.52l-1.82-190.94-10.6-33.08c-9.2-19.7,11.55-41.7,33.3-41.7h49.82c13.86,0,27.62-2.49,40.67-7.36l42.71-15.96,42.73,15.96c13.05,4.87,26.81,7.36,40.67,7.36h47.44c22.85,0,43.54,20.77,33.87,41.47l-10.63,33.31v190.94s-35.3,36.85-64.48,59.52c-29.01,22.54-89.58,59.1-89.58,59.1Z"/></clipPath><clipPath id="clippath-1"><rect class="cls-11" x="181.94" y="434.2" width="309.71" height="44.59"/></clipPath><pattern id="Mustereditor-Objekt_2" x="0" y="0" width="28.35" height="28.35" patternTransform="translate(2924.58 2942.11) scale(1.37)" patternUnits="userSpaceOnUse" viewBox="0 0 28.35 28.35"><g><rect class="cls-11" y="0" width="28.35" height="28.35"/><circle class="cls-3" cx="28.35" cy="28.35" r=".94"/><circle class="cls-3" cy="28.35" r=".94"/><circle class="cls-3" cx="14.17" cy="14.17" r=".94"/><circle class="cls-3" cx="28.35" cy="0" r=".94"/><circle class="cls-3" cy="0" r=".94"/></g></pattern><clipPath id="clippath-2"><path class="cls-11" d="m340.84,726.98s-61.12-36.98-89.6-59.1c-29.19-22.68-64.48-59.52-64.48-59.52l-1.82-190.94-10.6-33.08c-9.2-19.7,11.55-41.7,33.3-41.7h49.82c13.86,0,27.62-2.49,40.67-7.36l42.71-15.96,42.73,15.96c13.05,4.87,26.81,7.36,40.67,7.36h47.44c22.85,0,43.54,20.77,33.87,41.47l-10.63,33.31v190.94s-35.3,36.85-64.48,59.52c-29.01,22.54-89.58,59.1-89.58,59.1Z"/></clipPath><pattern id="Mustereditor-Objekt_2-2" patternTransform="translate(2963.6 2985.78) scale(1.37)" xlink:href="#Mustereditor-Objekt_2"/><clipPath id="clippath-3"><polygon class="cls-11" points="509.25 400.09 173.66 400.09 184.09 347.67 281.3 338.92 340.82 319.31 425.61 342.62 499.28 349.01 509.25 400.09"/></clipPath><pattern id="Mustereditor-Objekt_2-3" patternTransform="translate(2943.18 2935.01) scale(1.37)" xlink:href="#Mustereditor-Objekt_2"/><clipPath id="clippath-4"><path class="cls-11" d="m340.84,726.98s-61.12-36.98-89.6-59.1c-29.19-22.68-64.48-59.52-64.48-59.52l-1.82-190.94-10.6-33.08c-9.2-19.7,11.55-41.7,33.3-41.7h49.82c13.86,0,27.62-2.49,40.67-7.36l42.71-15.96,42.73,15.96c13.05,4.87,26.81,7.36,40.67,7.36h47.44c22.85,0,43.54,20.77,33.87,41.47l-10.63,33.31v190.94s-35.3,36.85-64.48,59.52c-29.01,22.54-89.58,59.1-89.58,59.1Z"/></clipPath></defs><path class="cls-15" d="m340.84,726.98s-61.12-36.98-89.6-59.1c-29.19-22.68-64.48-59.52-64.48-59.52l-1.82-190.94-10.6-33.08c-9.2-19.7,11.55-41.7,33.3-41.7h49.82c13.86,0,27.62-2.49,40.67-7.36l42.71-15.96,42.73,15.96c13.05,4.87,26.81,7.36,40.67,7.36h47.44c22.85,0,43.54,20.77,33.87,41.47l-10.63,33.31v190.94s-35.3,36.85-64.48,59.52c-29.01,22.54-89.58,59.1-89.58,59.1Z"/><g class="cls-17"><g><g><line class="cls-9" x1="138.01" y1="418.27" x2="689.06" y2="420.81"/><line class="cls-8" x1="106.51" y1="492.79" x2="657.57" y2="495.33"/><line class="cls-9" x1="90.73" y1="505.06" x2="641.79" y2="507.6"/></g><line class="cls-8" x1="82.84" y1="406.29" x2="633.89" y2="408.83"/></g></g><g class="cls-12"><rect class="cls-6" x="20.25" y="190.74" width="651.59" height="321.81"/></g><g class="cls-5"><rect class="cls-1" x="20.42" y="506.33" width="651.59" height="321.81"/></g><g class="cls-18"><rect class="cls-2" y="105.96" width="651.59" height="321.81"/></g><g class="cls-13"><rect class="cls-16" x="255.79" y="304.08" width="169.6" height="363.55"/></g><path class="cls-4" d="m342.97,618.42s-37.55-81.66-110.98-162.38c73.44-43.57,109.29-112.58,109.29-112.58,0,0,42.4,69.01,106.8,112.21-64.4,81.1-105.11,162.75-105.11,162.75Z"/><path class="cls-7" d="m340.84,726.98s-61.12-36.98-89.6-59.1c-29.19-22.68-64.48-59.52-64.48-59.52l-1.82-190.94-11.73-36.58c-6.05-18.89,8.03-38.2,27.87-38.2h56.37c13.86,0,27.62-2.49,40.67-7.36l42.71-15.96,42.73,15.96c13.05,4.87,26.81,7.36,40.67,7.36h56.56c19.55,0,33.29,19.26,26.91,37.75l-12.77,37.03v190.94s-35.3,36.85-64.48,59.52c-29.01,22.54-89.58,59.1-89.58,59.1Z"/><g><g><path class="cls-10" d="m233.38,703.35s6.21,7.4,13.7-.18c7.5-7.58-.27-16.87-.27-16.87l-11.4.86c2.69,11.72-2.04,16.19-2.04,16.19Z"/><path class="cls-10" d="m203.63,690.36s-2.17,13.6,8.62,15.22c13.59,2.04,15.08-12.01,23.9-10.82,8.82,1.19,8.03,10.97,10.54,8.65,9.44-8.68.86-16.36.86-16.36l-43.92,3.3Z"/></g><g><path class="cls-10" d="m449.02,703.35s-6.23,7.4-13.76-.18c-7.53-7.58.27-16.87.27-16.87l11.44.86c-2.7,11.72,2.05,16.19,2.05,16.19Z"/><path class="cls-10" d="m478.9,690.36s2.18,13.6-8.65,15.22c-13.65,2.04-15.14-12.01-23.99-10.82-8.85,1.19-8.06,10.97-10.58,8.65-9.48-8.68-.87-16.36-.87-16.36l44.1,3.3Z"/><path class="cls-10" d="m341.87,683.82c37.87.05,137.03,6.88,137.03,6.88,0,0-1.87-21.22,0-27.72,1.11-3.85,3.46-4.66,7.38-10.4,2.17-3.17-3.24-11.52-7.2-11.84-28.77-2.32-112.27-4.92-137.8-4.99-25.53.07-109.02,2.67-137.8,4.99-3.96.32-9.37,8.68-7.2,11.84,3.92,5.73,6.27,6.55,7.38,10.4,1.87,6.49,0,27.72,0,27.72,0,0,99.16-6.83,137.03-6.88h1.18Z"/></g><text class="cls-14" transform="translate(271.49 671.15) scale(.99 1)"><tspan x="0" y="0">Glophorus</tspan></text></g><g><g><path class="cls-3" d="m342.63,492.12c.68-.57,4.04-4.04,4.73-5.13,5.4-9.08,2.44,4.75.51,7.62-.71,1.1-3.61,4.92-2.44,4.44,8.21-3.34,6.66-13.78,11.99-7.92,2.83,3.11-3.07-12.26,1.53-16.71.45-.44,6.63,5.44,6.36,4.14s-3.85-11.67.27-15.09c-1.56,10.96,7.4,24.15-3.02,16.24-.09-.07-.21,0-.21.12,1.2,39.49-6.69,49.65-6.34,51.94.69,4.48,41.51-34.06,36.74-68.67-.36-2.62-1.72-2.86,3.54-.19.9.46.22-5.79-.91-10-.23-.84,1.86.41,3.32,1.04.96.41.89-5.45-1.91-8.92-3.28-4.06-7.51-5.99-8.34-11.9-1.29-9.17,1.72-12.51,8.76-11.08.77.16,4.2,3.76,4.78,4.94,1.37,2.77.35-5.03.12-6.56-1.53-6.52-16.51-12.15-22.31-13.11l-1.52-.29s-4.78-1.9-7.72-4.53c-2.94-2.63-5.23-5.89-5.23-5.89,0,0,.45,3.98,1.07,5.74.62,1.75,1.33,4,1.33,4,0,0-.59-.02-1.91.02-.96.02-2.22.2-2.89.31-.18.03-.24.27-.09.38.47.37,1.25.98,1.7,1.34.66.53,2.91,2.61,2.91,2.61,0,0-3.81,1.58-5.02,2.01-.75.27-3.27,1.28-3.82,1.62-.17.11-.13.37.07.41,1.16.26,4.5.79,5.5,1.01,1.31.29,5.87,1.29,5.87,1.29-2.46,30.28-35.36,36.76-39.54,7.23-.14-.96-.86-1.73-1.68-2.23-2.59-1.57-7.65-4.68-7.74-4.2,0,0,.98,4.15-.01,5.76-4.78,7.73-42.98,30.96-78.89,21.47-19.59-5.03-1.91,8.97,11.75,14.71,14.52,6.1,35.58,2.65,37.6,3.42,1.84.71-10.07,6.51-22,8.52-14.94,2.52-19.41,1.4-18.51,2.25,2.27,2.15,7.65,2.96,13.1,3.13,21.57.65,48.32-2.99,62.17-24.22,1.4,21.95-10.24,28.87-17.57,33.93-1.78,1.23-6.6,4.58-10.76,6.45-.15.07-.65.95.54,1.06,5.6.49,15.5,1.41,22.26-.39,9.05-2.41,12.1-12.14,9.8-4.37-3.13,8.97-6.85,12.24-7.16,12.86-1.29,2.63,10.2-3.03,19.25-10.64Zm44.1-76.15c-.29.43-2.23.93-2.61.9-.18-.02-2.29-1.27-2.7-2.99.98.16,5.35,1.93,5.31,2.09Z"/><path class="cls-3" d="m324.07,460.38c.11-.14.29-.02.28.15-.56,8.67-4.71,14-5.86,15.5-2.27,2.98-9.06,8.15-11.92,9.06-2.49.79-19.81,5.12-19.29,4.13.43-.82,3.99-2.08,11.94-9.21,2.24-2.01,6.14-5.93,7.37-6.89,1-.78,12.99-6.94,17.48-12.75Z"/><path class="cls-3" d="m345.52,527.42c-.5-.13-7,4.96-4.79,1.77,6.17-8.95,1.49-6.5-4.99-1-21.27,18.09-19.79,47.3-26.28,76.5-1.42,6.41-7.75,18.34-5.43,16.53,2.19-1.7,9.59-13.15,12.32-18.92,1.19-2.52,1.94-7.07,2.33-6.78,2.2,1.63,2.07,11.82,2.23,13.88.41,5.44,4.08-12.52,4.61-16.88.4-13.07-2.42-34.99.29-44.69,2.8-10,5.54-11.64,15.04-9.38,1.56.37,11.2-11.96,12.19-14.4-1.72-.92-5.31,2.22-7.53,3.36Z"/><path class="cls-3" d="m351.73,541.07c-10.14,4.67-17.12.14-18.74,2.87-4.16,7.01-.8,10.37.07,14.58.39,1.92,3.81,14.14,4.46,10.69.55-2.91-1.9-14.69,2.87-17.61,1.56-.95,4.42,2.37,7.83,2.29,3.63-.09-4.48-4.58-3.62-7.09,6.26.49,10.23-3.75,16.84-8.16.5-2.51-5.27.38-9.71,2.42Z"/><path class="cls-3" d="m311.55,553.61c-3.32,5.58,2-.19,1.85.97-.13,1.04-1.13,3.94-1.48,14.09-.08,2.45,3.99-12.35,6.03-18.44.83-2.48-4.89.84-6.4,3.38Z"/></g><path class="cls-3" d="m345.17,574.28c-.33-2.82-4.25,8.23-8.27,6.13-4.4-2.3-5.67-20.1-7.07-14.62-1.4,5.47.68,17.22.89,22.7.34,8.97-4.66,18.41-.89,14.53s8.73-10.74,11.65-16.6c2.92-5.87,3.79-11.33,3.69-12.14Z"/><path class="cls-3" d="m259.45,403.72c-.24,7.08,23.85,36.49,38.08,31.32,4.31-.73,25.59-8.22,20.92-18.25-.9-1.93-27.74.57-40.68-3.2-1.81-.53-10.63-5.8-13.56-8.45-1.87-1.7-2.79-2.62-4.75-1.43Z"/><path class="cls-3" d="m345.33,413.55c.34,1.55-1.04,1.79-1.64,2.17-7.77,4.98-21.6-1-14.14,3.64,3.91,2.43,2.98,11.88,6.45,15.65,4.75,5.16,9.87,9.03,20.6,4.59,1.93-.8-3.6-3.13-4.95-5.76-2.74-5.36-4.46-10.49.49-13.67,2.39-1.53-7.73-10.87-6.81-6.63Z"/><path class="cls-3" d="m252.43,434.59c-.15.29.04.69.66,1.33,2.08,2.18,6.02,6.15,8.42,7.62,1.34.84,2.06,1.4,4.79,1.81,3.35.52,10.46-1.01,10.49-1.34.03-.28-.69-.52-1.6-.58-1.11-.08-3.55-.28-6.18-1.04-2-.58-10.12-4.52-12.33-6.16-.95-.7-3.34-2-3.77-2.04-.18-.02-.4.17-.49.38Z"/></g></svg>