<?xml version="1.0" encoding="UTF-8"?><svg id="H_bunt" xmlns="http://www.w3.org/2000/svg" xmlns:xlink="http://www.w3.org/1999/xlink" viewBox="0 0 773.47 828.14"><defs><style>.cls-1{fill:#fff;}.cls-2{fill:#231e44;}.cls-3{font-family:Iglesia-Light, Iglesia;font-size:40px;font-weight:300;}.cls-3,.cls-4{fill:#16140a;}.cls-5{fill:#d5ae85;stroke:#16140a;stroke-width:4px;}.cls-5,.cls-6,.cls-7{stroke-miterlimit:10;}.cls-8,.cls-7{fill:none;}.cls-9{fill:#1a4728;}.cls-6{fill:url(#Neues_Muster_10);stroke:url(#Neues_Muster_10);}.cls-7{stroke:#1a4728;stroke-width:7px;}</style><pattern id="Neues_Muster_10" x="0" y="0" width="28.35" height="45.83" patternTransform="translate(43.19 103.41)" patternUnits="userSpaceOnUse" viewBox="0 0 28.35 45.83"><g><rect class="cls-8" y="0" width="28.35" height="45.83"/><path class="cls-2" d="m28.33,70.13c0,9.66-14.12,17.49-14.12,17.49,0,0-14.12-7.83-14.12-17.49s14.12-25.85,14.12-25.85c0,0,14.12,16.19,14.12,25.85Z"/><g><path class="cls-2" d="m28.33,24.3c0,9.66-14.12,17.49-14.12,17.49C14.21,41.79.09,33.96.09,24.3S14.21-1.56,14.21-1.56c0,0,14.12,16.19,14.12,25.85Z"/><circle class="cls-1" cx="28.35" cy="45.83" r="1.29"/></g><circle class="cls-1" cx="0" cy="45.83" r="1.29"/><circle class="cls-1" cx="28.35" cy="0" r="1.29"/><circle class="cls-1" cx="0" cy="0" r="1.29"/></g></pattern></defs><path class="cls-4" d="m473.68,417.41l39.6-56.81-39.6-55.05h-132.94s-.01,0-.01,0h-132.77s-39.6,55.64-39.6,55.64l39.6,55.64s-39.6,35.38-39.6,85.99,39.6,118.9,39.6,118.9l132.87,117.4,132.85-117.4s39.6-68.29,39.6-118.9-39.6-85.4-39.6-85.4Z"/><path class="cls-6" d="m473.68,417.41l39.6-56.81-39.6-55.05h-132.94s-.01,0-.01,0h-132.77s-39.6,55.64-39.6,55.64l39.6,55.64s-39.6,35.38-39.6,85.99,39.6,118.9,39.6,118.9l132.87,117.4,132.85-117.4s39.6-68.29,39.6-118.9-39.6-85.4-39.6-85.4Z"/><path class="cls-9" d="m340.73,305.55c-38.62,78.4-113.21,140.56-113.21,140.56,0,0,74.69,188.75,113.31,293.01,38.61-104.26,115.03-293.01,115.03-293.01,0,0-76.52-62.16-115.13-140.56Z"/><path id="rahmen" class="cls-7" d="m473.68,417.41l39.6-56.81-39.6-55.05h-132.94s-.01,0-.01,0h-132.77s-39.6,55.64-39.6,55.64l39.6,55.64s-39.6,35.38-39.6,85.99,39.6,118.9,39.6,118.9l132.87,117.4,132.85-117.4s39.6-68.29,39.6-118.9-39.6-85.4-39.6-85.4Z"/><g><path class="cls-5" d="m424.05,720.05v-24.55l35.57-.45-9.55,25.63h-25.42c-.34-.02-.6-.29-.6-.63Z"/><path class="cls-5" d="m456,698.53c-3.69,1.5-39.81,21.91-30.42,22.07s59.58,0,59.58,0c0,0,4.56-.67,8.19-5.92,3.87-5.6,18.13-31.29,18.13-31.29h-45.48s-2.28,11.99-10,15.14Z"/><g><path class="cls-5" d="m257.6,720.05v-24.55s-35.57-.45-35.57-.45l9.55,25.63h25.42c.34-.02.6-.29.6-.63Z"/><path class="cls-5" d="m225.65,698.53c3.69,1.5,39.81,21.91,30.42,22.07-9.39.17-59.58,0-59.58,0,0,0-4.56-.67-8.19-5.92-3.87-5.6-18.13-31.29-18.13-31.29h45.48s2.28,11.99,10,15.14Z"/><path class="cls-5" d="m340.82,704.62l-42.49.48-72.65-6.57h0c-8.13-2.04-9.44-12.21-11.03-20.48l-5.36-26.1,89.04,5.7,42.49-.25h0s42.49.25,42.49.25l89.04-5.7-5.36,26.1c-1.6,8.27-2.9,18.44-11.03,20.48h0s-72.65,6.57-72.65,6.57l-42.49-.48h0Z"/></g></g><text class="cls-3" transform="translate(264.07 692.72)"><tspan x="0" y="0">Hywengard</tspan></text><g><path class="cls-1" d="m347.9,373c-3.79,2.82-7,5.35-7.2,5.64s-1.17.53-2.24.53c-1.31,0-2.58.49-4.43,1.75-1.46.97-3.16,1.95-3.79,2.19-1.46.58-12.06,1.95-18.19,2.33-4.33.24-4.91.39-5.79,1.51-.88,1.07-.97,1.7-.73,4.62.24,3.6,1.7,8.02,3.06,9.53,1.02,1.12,3.7,1.22,6.71.19l2.19-.73,6.71,2.92c3.7,1.6,7,3.31,7.34,3.74.88,1.17.34,5.59-.97,8.17-2.14,4.23-8.41,9.48-15.56,12.89-2.72,1.31-5.15,2.43-5.3,2.43s-.44-2.33-.53-5.25c-.15-2.87-.53-5.74-.88-6.42-.92-1.9-7.49-7.29-8.8-7.29s-.88-.29-17.89,11.91c-6.71,4.81-12.3,9-12.4,9.29-.24.63-.39,9.19-.34,17.8l.05,5.2,2.33,3.06c1.31,1.7,2.72,3.11,3.16,3.21,1.17.24,8.61-12.74,8.61-15.12,0-.49-.92-1.41-2.19-2.19q-2.19-1.31-2.19-4.08t2.04-3.84c1.12-.58,3.16-1.75,4.47-2.63,7-4.47,10.5-6.56,10.94-6.56,1.26,0-.19,7.97-2.43,13.18l-1.51,3.5.05,9.43c0,5.15.15,10.16.29,11.04.39,2.09.05,2.19-8.51,2.53-5.84.24-6.91.15-9.43-.73-3.7-1.31-4.91-1.26-6.37.15l-1.17,1.17.29,14.98.29,14.98,4.23,3.99c4.04,3.84,4.23,4.18,5.49,8.12,1.46,4.47,2.09,5.2,7.05,8.61,2.19,1.51,3.21,1.95,3.6,1.56.63-.63,1.12-12.5.68-16.24-.44-3.55-1.07-4.33-3.79-4.62-1.95-.24-2.63-.63-5.06-3.11l-2.77-2.82-.24-6.61-.24-6.56h2.87c5.25,0,14.69,3.4,16.44,5.88.39.58,1.65,3.31,2.77,5.98,5.64,13.47,17.02,33.02,24.9,42.84,7.73,9.63,21.44,21.2,30.25,25.53,5.54,2.72,14.69,5.88,20.42,7.05,6.66,1.36,16.19,1.8,21.1.92,5.01-.88,14.3-3.89,18.58-6.08,6.47-3.26,16.83-10.94,21.06-15.56,5.35-5.93,11.04-18.62,11.96-26.84.73-5.98.58-19.89-.19-25.14-1.22-7.88-6.03-17.26-11.87-23.1-4.91-4.91-15.32-9.92-22.81-10.99-8.32-1.22-19.35.58-27.38,4.47-8.22,3.94-16,10.11-20.47,16.24-4.23,5.84-10.65,18.24-10.65,20.62,0,.73,1.17,3.06,2.72,5.4,3.11,4.77,5.06,8.22,5.06,9.09,0,.34-.88.78-1.95.92-1.07.19-2.04.49-2.19.68-.1.19.39,1.17,1.07,2.24,3.79,5.69,6.95,6.95,6.95,2.67s5.88-21.4,9.39-27.28c2.43-3.99,9.04-9.87,13.18-11.67,2.72-1.22,9-2.43,12.45-2.43,6.42.05,14.25,2.87,17.02,6.22,2.29,2.77,4.77,8.27,5.45,12.16,1.46,8.51-2.19,21.83-7.54,27.72-2.33,2.53-8.17,5.49-12.5,6.37-7.78,1.56-20.76,1.56-27.47,0-5.84-1.36-14-6.32-18.48-11.28-3.01-3.31-6.81-9.24-6.08-9.48.24-.1,1.26.05,2.24.34,1.75.49,3.11.1,3.11-.88,0-.19-1.31-1.95-2.97-3.94-6.03-7.39-10.75-15.8-14.49-25.77-2.04-5.54-2.58-8.85-1.56-9.87.39-.39.73-.05,1.26,1.26.39.97.73,1.95.73,2.19,0,.78,5.93,4.57,6.42,4.08.29-.29.19-2.24-.34-5.59-.92-5.93-.49-9.63,1.41-11.82l1.07-1.26,1.41,1.99c.97,1.46,1.65,1.99,2.38,1.9.83-.1,1.07-.58,1.36-2.82.15-1.46.29-4.33.34-6.32.05-2.04.39-4.96.78-6.52.92-3.45,2.97-7.1,4.04-7.1.44,0,1.95,1.22,3.31,2.67,1.41,1.46,2.67,2.67,2.82,2.67s.24-3.89.15-8.66c-.1-8.51-.1-8.66,1.46-13.47,1.51-4.67,5.59-12.4,6.76-12.74.29-.1,1.7.83,3.06,2.09,1.85,1.65,2.67,2.14,2.92,1.7.68-1.07-.49-5.01-3.36-11.23-4.23-9.24-5.25-14.83-3.4-18.92l.97-2.14,4.13.24c2.29.15,4.28.1,4.43-.15.34-.58-1.36-2.72-3.36-4.18-2.14-1.6-5.3-2.43-12.74-3.31-5.35-.68-6.56-.97-7.93-2.04-1.6-1.22-1.65-1.36-1.31-3.5.58-3.6.53-4.13-.24-4.33-.44-.05-3.84,2.14-7.59,4.91Zm-3.59,14.43c.41,2.91-1.27,2.59-3.76,2.25-1.16-.62-1.27-.66-2.77-.05-.89.27-1.11-.23-1.11-.57,0-.69,6.01-3.45,7.04-3.17.41.07.53.45.6,1.54Z"/><path class="cls-1" d="m433.58,447.54c-.15.44-.1,1.6.19,2.63.49,1.7,1.22,3.01,5.06,8.51,1.41,2.04,1.46,2.87.49,10.21-.24,1.75,0,2.29,2.29,5.35,1.36,1.85,3.5,5.45,4.72,7.88,1.26,2.48,2.53,4.52,2.82,4.52.39,0,.68-2.58.97-7.93.78-14.49.58-15.17-6.47-21.64-2.53-2.33-5.59-5.59-6.81-7.29-2.29-3.16-2.77-3.5-3.26-2.24Z"/><path class="cls-1" d="m405.76,490.72c-.39,1.02.68,6.91,1.56,8.61.39.78,1.7,2.53,2.87,3.84,2.43,2.72,4.96,7.39,5.79,10.6.29,1.17.78,2.14,1.02,2.14,1.56.19,3.16-9.92,2.43-15.41-.29-2.63-.39-2.72-1.51-2.48-2.53.63-4.77-.49-6.91-3.5-2.38-3.31-4.77-5.01-5.25-3.79Z"/><path class="cls-1" d="m255.11,541.08c-.06.32.72,1.26,1.78,2.12,2.24,1.78,3.79,3.81,4.34,5.73l.39,1.35-2.58-1.02c-1.42-.55-4.15-1.03-6.02-1.04-7.33-.15-12.96,1.58-19.77,6.19-4.52,3.08-7.5,4.15-11.74,4.22-1.51.03-2.82.06-2.87.07-.09.03-.06.32.04.65.23.79,9.57,4.36,14.7,5.66,4.31,1.08,10.27,1.73,14.74,1.6,3.47-.09,7.98.62,12.74,2.03,5.76,1.72,8.53,2.34,12.11,2.66,3.45.37,3.56.39,2.66,1.31-.64.59-2.78,1.41-6.19,2.4q-6.13,1.73-.24,4.07c14.59,5.79,23.52,6.54,41.72,3.49,9.18-1.5,17.29-5.32,23.63-11.06,4.13-3.73,7.24-8.4,8.56-13.8-4.23-2.25-7.42-5.61-8.04-6.17-2.75,5.35-4.07,6.67-8.04,7.47-4.44.93-8.71,0-15.24-3.33-6.24-3.2-7.21-3.02-4.68.8,1.63,2.46,2.56,4.98,2.06,5.53s-7.08-2.6-11.12-5.33c-8.38-5.67-14.58-8.73-15.53-7.65-.19.21.01,1.26.54,2.38.47,1.08.9,2.57.9,3.28.06,1.25-.48.95-7.69-4.5-7.79-5.89-12.02-8.26-16.19-9.03-3.65-.71-4.81-.68-4.98-.07Z"/><path class="cls-1" d="m459.45,541.98c-.58.78-1.8,2.38-2.63,3.6-2.72,3.94-8.66,5.98-13.66,4.81-3.01-.73-4.28-.29-7.34,2.58-4.47,4.18-13.42,10.16-19.84,13.23-6.71,3.26-18.43,7.49-20.76,7.49-.92,0-1.31.19-1.22.58.29.83,8.32,1.26,22.22,1.17l10.89-.05.73-2.09c.49-1.46,1.26-2.43,2.67-3.45,3.94-2.67,10.8-5.88,16.87-7.83,7.25-2.33,9.04-3.36,10.02-5.59.63-1.6,4.08-14.44,4.08-15.37,0-.83-.92-.44-2.04.92Z"/></g></svg>