<?xml version="1.0" encoding="UTF-8"?><svg id="S_bunt" xmlns="http://www.w3.org/2000/svg" xmlns:xlink="http://www.w3.org/1999/xlink" viewBox="0 0 773.47 828.14"><defs><style>.cls-1{fill:url(#Mustereditor-Objekt_2-2);}.cls-2{fill:url(#Mustereditor-Objekt_2-3);}.cls-3{fill:#fff;}.cls-4{clip-path:url(#clippath-2);}.cls-5{fill:url(#Mustereditor-Objekt_2);}.cls-6,.cls-7,.cls-8,.cls-9,.cls-10{stroke-miterlimit:10;}.cls-6,.cls-7,.cls-11{fill:none;}.cls-6,.cls-10{stroke:#16140a;stroke-width:4px;}.cls-7{stroke:#1a3b65;}.cls-7,.cls-8{stroke-width:7px;}.cls-12{clip-path:url(#clippath-1);}.cls-13{clip-path:url(#clippath-4);}.cls-8,.cls-9{fill:#1d1c1b;stroke:#fff;}.cls-14{font-family:Iglesia-Light, Iglesia;font-size:40px;font-weight:300;}.cls-14,.cls-15{fill:#16140a;}.cls-16{fill:#31203f;}.cls-10,.cls-17{fill:#d5ae85;}.cls-18{clip-path:url(#clippath);}.cls-19{clip-path:url(#clippath-3);}.cls-20{fill:#1a3b65;}</style><clipPath id="clippath"><path class="cls-11" d="m483.12,338.19s-52.2-30.85-72.04-30.8c-19.65.04-70.25,34.02-70.25,34.02,0,0-50.6-33.98-70.25-34.02-19.84-.04-72.04,30.8-72.04,30.8l-31.78,17.31v33.25l16.24,18.61s18.96,65.75,19.16,88.66c.21,24.41-19.16,94.85-19.16,94.85,0,43.04,66.4,139.1,157.83,149.35,91.43-10.25,157.83-106.31,157.83-149.35,0,0-19.37-70.44-19.16-94.85.2-22.91,19.16-88.66,19.16-88.66l16.24-18.61v-33.25l-31.78-17.31Z"/></clipPath><clipPath id="clippath-1"><path class="cls-11" d="m483.12,338.19s-52.2-30.85-72.04-30.8c-19.65.04-70.25,34.02-70.25,34.02,0,0-50.6-33.98-70.25-34.02-19.84-.04-72.04,30.8-72.04,30.8l-31.78,17.31v33.25l16.24,18.61s18.96,65.75,19.16,88.66c.21,24.41-19.16,94.85-19.16,94.85,0,43.04,66.4,139.1,157.83,149.35,91.43-10.25,157.83-106.31,157.83-149.35,0,0-19.37-70.44-19.16-94.85.2-22.91,19.16-88.66,19.16-88.66l16.24-18.61v-33.25l-31.78-17.31Z"/></clipPath><clipPath id="clippath-2"><rect class="cls-11" x="117.13" y="463.11" width="427.58" height="44.59" transform="translate(507.56 -74.89) rotate(51.78)"/></clipPath><pattern id="Mustereditor-Objekt_2" x="0" y="0" width="28.35" height="28.35" patternTransform="translate(-9535.88 7419.23) rotate(51.78) scale(1.37)" patternUnits="userSpaceOnUse" viewBox="0 0 28.35 28.35"><g><rect class="cls-11" y="0" width="28.35" height="28.35"/><circle class="cls-3" cx="28.35" cy="28.35" r=".94"/><circle class="cls-3" cy="28.35" r=".94"/><circle class="cls-3" cx="14.17" cy="14.17" r=".94"/><circle class="cls-3" cx="28.35" cy="0" r=".94"/><circle class="cls-3" cy="0" r=".94"/></g></pattern><clipPath id="clippath-3"><rect class="cls-11" x="199.96" y="401.28" width="427.58" height="84.96" transform="translate(506.43 -155.85) rotate(51.78)"/></clipPath><pattern id="Mustereditor-Objekt_2-2" patternTransform="translate(-9558 7410.78) rotate(51.78) scale(1.37)" xlink:href="#Mustereditor-Objekt_2"/><clipPath id="clippath-4"><rect class="cls-11" x="30.33" y="512.67" width="466.84" height="101.56" transform="translate(543.26 7.65) rotate(51.78)"/></clipPath><pattern id="Mustereditor-Objekt_2-3" patternTransform="translate(-9572.3 7448.59) rotate(51.78) scale(1.37)" xlink:href="#Mustereditor-Objekt_2"/></defs><g><path class="cls-10" d="m232.64,648.98v-16.23s-12.5-12.2-34.08-11.6-36.5,3.02-35.9,11.6c.61,8.57,1.82,18.57.81,27.18-1.01,8.61-3.43,15.27-2.42,18.5s11.2,11.97,21.52,13.79c16.3,2.87,51.37,5,65.92,6.36"/><path class="cls-6" d="m232.64,632.75c0,4.28-1.99,9.08-12.87,8.61-10.88-.47-35.95-11.29-35.95-11.29v16.35"/></g><g><path class="cls-10" d="m449.12,648.98v-16.23s12.5-12.2,34.08-11.6c21.58.61,36.5,3.02,35.9,11.6s-1.82,18.57-.81,27.18c1.01,8.61,3.43,15.27,2.42,18.5-1.01,3.23-11.2,11.97-21.52,13.79-16.3,2.87-51.37,5-65.92,6.36"/><path class="cls-6" d="m449.12,632.75c0,4.28,1.99,9.08,12.87,8.61s35.95-11.29,35.95-11.29v16.35"/></g><path class="cls-15" d="m483.12,338.19s-52.2-30.85-72.04-30.8c-19.65.04-70.25,34.02-70.25,34.02,0,0-50.6-33.98-70.25-34.02-19.84-.04-72.04,30.8-72.04,30.8l-31.78,17.31v33.25l16.24,18.61s18.96,65.75,19.16,88.66c.21,24.41-19.16,94.85-19.16,94.85,0,43.04,66.4,139.1,157.83,149.35,91.43-10.25,157.83-106.31,157.83-149.35,0,0-19.37-70.44-19.16-94.85.2-22.91,19.16-88.66,19.16-88.66l16.24-18.61v-33.25l-31.78-17.31Z"/><g class="cls-18"><g><g><line class="cls-9" x1="533.45" y1="684.67" x2="193.3" y2="251.11"/><line class="cls-8" x1="493.92" y1="755.27" x2="153.78" y2="321.71"/><line class="cls-9" x1="493.92" y1="775.26" x2="153.78" y2="341.7"/></g><line class="cls-8" x1="576.76" y1="720.88" x2="236.61" y2="287.33"/></g><g class="cls-12"><g class="cls-4"><polygon class="cls-5" points="457.69 737.01 54.58 225.08 307.42 25.99 710.52 537.92 457.69 737.01"/></g><g class="cls-19"><polygon class="cls-1" points="520.64 711.02 117.53 199.09 370.36 0 773.47 511.93 520.64 711.02"/></g><g class="cls-13"><polygon class="cls-2" points="414.78 820.93 11.67 309 264.51 109.91 667.62 621.84 414.78 820.93"/></g></g><rect class="cls-16" x="94.1" y="490.31" width="246.73" height="274.83"/><rect class="cls-16" x="340.93" y="215.13" width="246.73" height="274.83"/></g><polygon class="cls-20" points="341.56 658.49 262.32 490.23 341.56 339.6 416.44 490.23 341.56 658.49"/><g><path class="cls-3" d="m413.53,338.72c-2.44,3.47-8.56,10.21-11.45,12.57-6.91,5.62-40.36,24.73-49.08,28.04-7.94,3.02-11.83,4.63-14.47,6-4.34,2.23-9.63,5.83-12.28,8.39l-2.4,2.23v-3.56c0-1.94.17-4.01.41-4.59.66-1.82-.33-1.28-3.1,1.65-3.14,3.31-6.29,8.89-7.9,14.02-1.08,3.43-1.2,4.26-1.2,10.13,0,7.4.5,9.39,3.72,15.05,1.03,1.78,1.82,3.31,1.74,3.39-.04.04-.99-.17-2.07-.54-3.02-.99-3.27-.7-2.23,2.65.74,2.52.79,3.1.37,6.08-.54,3.6-.7,3.93-1.41,3.23-.29-.29-.91-.5-1.41-.5-.7,0-1.03.37-1.45,1.53-1.61,5-6.95,13.15-10.59,16.17-1.28,1.08-2.61,2.94-4.51,6.37-1.49,2.69-3.51,6-4.55,7.36-.99,1.36-1.82,2.69-1.82,2.89,0,.54,1.28.54,2.73,0,.62-.25,1.2-.33,1.32-.25.21.25-4.22,9.51-5.33,11.08-.45.58-.79,1.36-.79,1.74,0,.79,1.32.87,2.56.21.45-.25.87-.37.95-.29.12.12-.5,2.03-1.24,3.72-.45,1.16,1.32.95,2.98-.33l1.41-1.03,3.1,2.89c5.79,5.38,9.18,6.16,12.24,2.81.87-.91,1.61-1.57,1.7-1.49s1.03,1.32,2.07,2.73c2.85,3.76,6.82,6.74,8.97,6.74,1.08,0,1.03-.29-.41-2.23-.7-.91-1.24-1.94-1.24-2.36,0-.66.08-.7,1.16-.12.62.29,1.98.7,3.06.83,1.57.21,1.98.45,2.15,1.2.12.54.91,1.82,1.7,2.85.79,1.08,1.45,1.98,1.45,2.11,0,.08-1.32,2.19-2.94,4.63l-2.94,4.47.17,6.62c.21,7.61.37,8.06,3.85,13.07,2.23,3.1,2.32,3.31,1.7,4.18-1.08,1.53-.79,2.32,2.23,5.83,1.57,1.86,2.89,3.56,2.89,3.8-.04.21-.79.95-1.74,1.61-1.7,1.16-1.78,1.16-3.8.66-6.53-1.61-8.44-1.94-9.14-1.57-1.9,1.12-2.94,6.57-1.65,9.01.83,1.61,1.2,1.57,2.27-.21l.91-1.45h7.36c7.11,0,7.48.04,9.35,1.03,2.11,1.12,2.89,1.08,4.84-.29,1.45-1.03,5.25-1.41,7.73-.74,1.45.37,2.52,1.16,4.8,3.43,3.47,3.56,4.71,6.24,4.71,10.34,0,4.76-1.61,6.49-8.02,8.52-4.18,1.32-16.71,4.09-24.64,5.42-14.68,2.48-19.64,3.85-27.08,7.44-3.64,1.74-5.54,2.94-7.11,4.51-4.96,4.88-6.49,8.89-4.84,12.78,1.86,4.51,9.35,8.97,18.9,11.25,6.2,1.49,19.64.7,24.77-1.41q1.98-.83,1.98.29c0,.54.25,1.28.54,1.7.45.62.7.7,1.45.29.7-.37,1.36-.33,3.06.17,2.44.7,5.54.83,5.91.21.12-.25-.12-.95-.62-1.65l-.87-1.2,1.57-.25c3.35-.54,3.93-.74,5.67-1.7,1.03-.58,2.52-1.78,3.31-2.65,2.19-2.44,1.9-4.38-.45-3.18-.62.33-1.82.74-2.61.91l-1.41.29,2.07-2.4c3.64-4.22,5.38-8.02,3.68-8.02-.58,0-.62-.41-.37-2.48.45-3.93,0-4.26-1.82-1.32-3.64,6.04-6.2,7.86-11.99,8.72-3.8.58-5.21,1.28-6.62,3.39-1.12,1.61-1.65,1.78-3.47.99-1.03-.41-.99,1.24.08,3.02.62.99.7,1.41.33,1.53-1.53.45-5.21,1.03-9.88,1.49-10.54,1.03-20.47-1.49-26.75-6.91-.99-.83-2.03-2.03-2.4-2.69-.54-1.12-.54-1.36.21-3.02,3.6-8.19,17.86-12.65,53.59-16.79,4.09-.5,8.6-1.16,10.05-1.45,5.38-1.24,8.81-3.89,11-8.48q1.28-2.69,1.24-9.51c-.04-4.8-.25-7.86-.79-10.34-.45-2.32-.66-4.55-.54-6.53.33-4.8,1.65-5.17,2.23-.58.33,2.73.91,2.61,2.15-.5,2.56-6.45,3.6-16.42,2.61-25.27-.95-8.77-5.42-22.16-8.77-26.34-.66-.83-1.2-1.61-1.2-1.7s1.24.12,2.77.41c3.02.62,9.06.58,8.97-.08-.04-.25-1.36-.91-2.98-1.49-4.22-1.57-10.83-5.5-15.51-9.22-1.7-1.36-1.65-1.53.74-2.27,4.42-1.41,4.09-2.73-.79-3.14-2.48-.21-2.57-.3-4.44-.65-2.03-.35-2.71-.7-3.58-1.15-1.43-.98-.04-.76,5.71-1.01,3.51-.17,8.48-.66,10.96-1.08,6.86-1.24,12.28-2.44,12.69-2.85.45-.45-1.74-3.56-3.64-5.25l-1.41-1.24h5.25c7.36-.04,12.49-1.65,15.34-4.96,1.2-1.36,2.07-3.31,1.65-3.72-.08-.12-1.53-.33-3.14-.45-1.65-.17-2.98-.41-2.98-.54s.79-.62,1.78-1.08c3.68-1.74,11-10.34,9.8-11.54-.21-.21-1.49-.04-3.18.5-1.53.45-3.64.95-4.67,1.08l-1.86.21,1.2-.91c.66-.5,2.44-1.86,3.93-2.98,3.39-2.61,5.5-5.38,6.82-8.93,1.49-3.97,1.74-5.75.91-5.75-.37,0-3.68,1.24-7.36,2.73-11.25,4.59-22.21,8.06-29.28,9.26-4.55.74-11.5,1.12-13.89.74l-2.32-.37-3.23,3.1c-4.3,4.09-9.06,6.45-13.03,6.45h-1.74l-.29-1.94c-.12-1.03-.17-1.98-.08-2.07s.62.04,1.24.29c2.89,1.08,3.39.21,1.7-3.1l-.99-2.03,1.65-1.78c1.82-1.98,3.68-5.54,3.68-7.07,0-1.16-.91-1.2-2.73-.04-1.9,1.16-1.78.41.37-1.94l1.82-1.98,3.6,1.57c6.2,2.65,11.74,3.31,15.47,1.82.62-.25,1.45-1.95,3.14-2.16,4.18-.45,6.86.42,9.34-1.27,1.7-1.16,2.56-1.45,4.14-1.45,3.89,0,10.34-2.77,10.34-4.42,0-.41-.5-1.12-1.12-1.61l-1.12-.87,1.24-.74c4.01-2.52,4.09-4.22.21-6.2l-1.41-.7,3.43-1.9c1.86-1.08,3.72-2.36,4.05-2.89.58-.91.54-1.03-.87-2.44l-1.49-1.49,2.07-1.86c2.65-2.4,2.61-3.06-.25-4.26-2.4-.99-2.56-1.36-.74-1.78,3.14-.74,9.06-3.39,11.66-5.25,4.09-2.85,8.72-9.35,8.72-12.16,0-1.03-.04-1.08-1.94-.83-1.12.12-2.52.37-3.23.5-1.16.21-1.08.04,1.28-2.07,1.65-1.53,3.02-3.27,4.05-5.21,1.49-2.85,3.31-8.89,2.98-9.8-.12-.29-1.74.33-4.47,1.7-6.57,3.35-6.82,3.27-2.32-.99,4.55-4.3,7.53-8.48,8.64-12.07,1.2-3.89,1.82-15.67.83-15.67-.17,0-.95.91-1.74,2.03Z"/><path class="cls-3" d="m291.3,405.17c-.37.62-1.12,3.43-1.61,6.33-1.12,6.37-1.24,6.66-3.89,9.76-1.16,1.36-3.06,3.85-4.18,5.5q-2.23,3.23-1.36,7.44c.21,1.12,0,1.78-1.24,3.76-.83,1.36-1.49,2.52-1.49,2.61,0,.12.74.41,1.65.7s2.36.95,3.14,1.49c2.48,1.7,3.97,1.74,7.15.25,3.72-1.74,4.59-1.65,6.91.45,2.81,2.56,3.23,3.64,3.27,8.06,0,2.11.08,3.85.25,3.85.5,0,2.81-2.81,3.85-4.76,1.82-3.31,3.93-8.77,4.22-11,.29-2.15.66-2.4,2.11-1.41.62.41.99.5,1.16.17.5-.74-.21-3.8-1.28-5.71l-1.03-1.86,1.28-1.78c.74-.99,1.2-2.07,1.08-2.4s-1.08-.83-2.11-1.08c-1.53-.37-1.86-.62-1.61-1.16.17-.37.37-1.82.5-3.23.12-2.07.04-2.65-.45-2.85-.54-.21-2.69,1.12-6,3.68-.41.33-.45.08-.25-1.28.25-1.49.12-1.82-.87-2.73-.83-.79-1.49-2.19-2.32-5.04-.66-2.23-1.61-4.84-2.11-5.87-1.53-3.06-3.47-3.85-4.76-1.9Zm-5.09,24.11c0,.66-.91,2.94-1.2,2.94-.54,0-1.28-.99-1.28-1.74,0-.41.41-.95.95-1.16,1.2-.45,1.53-.5,1.53-.04Z"/><path class="cls-3" d="m281.58,407.48c-.29.58-.58,2.98-.66,5.91-.08,2.73-.33,5.13-.54,5.33-.91.99,0,3.97,1.24,3.97,1.16,0,5.42-7.15,5.42-9.14,0-1.74-3.27-6.99-4.34-6.99-.33,0-.83.41-1.12.91Z"/><path class="cls-3" d="m307.31,503.01c-1.39,1.23-2.42,1.36-4.12.53-.83-.4-1.59-.66-1.66-.56-.1.1,0,2.22.23,4.75.27,2.85,1.15,18.89,1.05,24.17-.13,7.6-.23,8.83-1,11.98-.83,3.49-2.46,7.63-3.19,8.07-.2.13-2.12,0-4.25-.3l-3.92-.56-1.63,1.79c-.9.96-1.89,2.36-2.22,3.09-.83,1.93-1.06,4.22-.53,4.91.4.56.53.53,1.96-.73l1.53-1.36h9.49c9.13,0,9.49-.03,9.83-.66.23-.43.27-1.93.13-4.22l-.23-3.58.83.73c.43.43.9.76,1.03.76.46,0,.2-3.22-.46-5.61-.86-3.05-.73-5.48.56-9.86,1.1-3.92.03-11.29,1.49-12.88,1.33-1.49,2.06-2.06,1.33-2.66-.6-.5-1.25-3.91-.81-6.57.44-1.91,1.43-5.35-.9-8.54-1.43-1.93-2.82-3.52-3.09-3.52-.3,0-.96.4-1.46.83Z"/></g><path id="rahmen" class="cls-7" d="m483.12,338.19s-52.2-30.85-72.04-30.8c-19.65.04-70.25,34.02-70.25,34.02,0,0-50.6-33.98-70.25-34.02-19.84-.04-72.04,30.8-72.04,30.8l-31.78,17.31v33.25l16.24,18.61s18.96,65.75,19.16,88.66c.21,24.41-19.16,94.85-19.16,94.85,0,43.04,66.4,139.1,157.83,149.35,91.43-10.25,157.83-106.31,157.83-149.35,0,0-19.37-70.44-19.16-94.85.2-22.91,19.16-88.66,19.16-88.66l16.24-18.61v-33.25l-31.78-17.31Z"/><g><path class="cls-17" d="m340.93,701.92l-61.98-3.33s-30.14-1.42-42.57-3.01c-14.59-1.87-50.03-39.52-50.03-39.52l19.47-6.17,135.11,5.74"/><g><path class="cls-6" d="m162.48,631.85c4.18,11.61,14.9,13.11,21.15,14.57,29.03,6.75,117.25,9.9,157.29,9.9"/><path class="cls-6" d="m238.27,697.73s62.62,4.19,102.66,4.19"/></g><path class="cls-17" d="m340.83,701.92l61.98-3.33s29.46-1.41,41.88-3.01c14.59-1.87,54.08-37.82,54.08-37.82l-22.83-7.88-135.11,5.74"/><g><path class="cls-6" d="m519.28,631.85c-4.18,11.61-14.9,13.11-21.15,14.57-29.03,6.75-117.25,9.9-157.29,9.9"/><path class="cls-6" d="m442.88,697.77s-62,4.15-102.04,4.15"/></g><text class="cls-14" transform="translate(270.87 688.93)"><tspan x="0" y="0">Sphylesca</tspan></text></g></svg>