<?xml version="1.0" encoding="UTF-8"?><svg id="W_bunt" xmlns="http://www.w3.org/2000/svg" xmlns:xlink="http://www.w3.org/1999/xlink" viewBox="0 0 773.47 828.14"><defs><style>.cls-1{fill:#043648;}.cls-2{fill:#fff;}.cls-3{fill:url(#Neues_Muster);}.cls-4{stroke:#f6a100;}.cls-4,.cls-5{stroke-width:7px;}.cls-4,.cls-5,.cls-6,.cls-7{stroke-miterlimit:10;}.cls-4,.cls-5,.cls-8{fill:none;}.cls-5{stroke:#f7ab00;}.cls-9{fill:#f7ab00;}.cls-10{font-family:Iglesia-Light, Iglesia;font-size:40px;font-weight:300;}.cls-10,.cls-11{fill:#16140a;}.cls-6{stroke:#d6af86;stroke-width:6px;}.cls-6,.cls-7{fill:#d5ae85;}.cls-7{stroke:#16140a;stroke-width:4px;}.cls-12{clip-path:url(#clippath);}.cls-13{fill:#f6a100;}</style><clipPath id="clippath"><path class="cls-8" d="m450.66,407.27c-.51-31.66,24.17-59.67,24.17-59.67l-74.65-43.25s-15.41,34.47-59.34,39.57c-43.93-5.1-58.88-39.57-58.88-39.57l-74.65,43.25s24.68,28.01,24.17,59.67c-.51,31.2-49.87,48.22-49.87,48.22l39.55,147.59s16.36,72.18,119.68,131.65c103.32-59.47,120.15-131.65,120.15-131.65l39.55-147.59s-49.37-17.01-49.87-48.22Z"/></clipPath><pattern id="Neues_Muster" x="0" y="0" width="24.35" height="39.36" patternTransform="translate(48.58 89.7)" patternUnits="userSpaceOnUse" viewBox="0 0 24.35 39.36"><g><rect class="cls-8" width="24.35" height="39.36"/><polygon class="cls-11" points="12.17 39.36 0 19.68 12.17 0 24.35 19.68 12.17 39.36"/><circle class="cls-2" cx="12.17" cy="19.68" r="1.23"/></g></pattern></defs><path class="cls-7" d="m478.58,668.17s29.2-6.07,34.72-7.53,10.25-6.41,10.25-6.41l-30.34-17.56,16.33-22.16s3.76-5.27,3.76-11.46l-57.2,13.74-18.73,33.62,41.21,17.76Z"/><path class="cls-7" d="m203.08,668.24s-29.2-6.07-34.72-7.53-10.25-6.41-10.25-6.41l30.34-17.56-16.33-22.16s-3.76-5.27-3.76-11.46l56.16,13.68,19.83,33.7-41.27,17.75Z"/><path class="cls-1" d="m450.66,407.27c-.51-31.66,24.17-59.67,24.17-59.67l-74.65-43.25s-15.18,33.87-59.11,38.96c-43.93-5.1-59.11-38.96-59.11-38.96l-74.65,43.25s24.68,28.01,24.17,59.67c-.51,31.2-49.87,48.22-49.87,48.22l39.55,147.59s16.36,72.18,119.68,131.65c103.32-59.47,120.15-131.65,120.15-131.65l39.55-147.59s-49.37-17.01-49.87-48.22Z"/><g class="cls-12"><rect class="cls-3" x="176.22" y="273.18" width="348.77" height="464.44"/></g><path class="cls-13" d="m340.93,343.95c-41.03,175.27-137.38,194.63-137.38,194.63,0,0,96.35,21.56,137.38,196.83h0s0,0,0,0c41.03-175.27,137.44-196.83,137.44-196.83,0,0-96.4-19.35-137.44-194.63"/><path id="umrandung" class="cls-4" d="m450.42,407.92c-.51-31.66,24.17-59.67,24.17-59.67l-74.65-43.25s-15.18,33.87-59.11,38.96c-43.93-5.1-59.11-38.96-59.11-38.96l-74.65,43.25s24.68,28.01,24.17,59.67c-.51,31.2-49.87,48.22-49.87,48.22l39.55,147.59s16.6,72.18,119.91,131.65c103.32-59.47,119.91-131.65,119.91-131.65l39.55-147.59s-49.37-17.01-49.87-48.22Z"/><g id="dragon"><path class="cls-2" d="m353.04,359.07c-5.17.36-10.16,1.45-16.59,3.61-9.68,3.23-18.28,7.14-23.88,10.85-6.24,4.11-9.3,6.48-12.32,9.47-2.99,2.99-3.96,4.13-8.19,9.66-1.88,2.44-3.51,4.39-3.66,4.3s-.58-2.85-.39-5.42c.13-1.82.81-4.56.73-5.44-.07-.81-2.22.67-3.52,2.24-2.02,2.37-3.44,4.53-4.77,7.19-2.44,4.84-4.34,9.38-6.34,15.24-.57,1.66-1.73,5.84-2.35,8.43-2.49,10.51-2.75,12.34-2.92,20.77-.12,5.96-.07,7.03.38,10.16,1.12,7.74,4.18,17.66,7.93,25.63,1.61,3.39,4.72,8.95,5.6,9.97.36.43,1.14,1.57,1.73,2.54,2.28,3.68,3.2,3.96,5.93,1.78,2.11-1.71,11.37-10.92,12.75-12.67.69-.9.97-1.47.93-1.9-.09-.93-.83-.88-2.59.12-2.66,1.5-8.54,4.37-9,4.37-.62,0-.71-.45-.71-3.11,0-4.41,1.64-9.54,4.7-14.69,2.73-4.6,6.84-9.61,11.25-13.77,3.61-3.39,4.44-4.03,5.29-4.03.78,0,.74.17-.62,2.16-1.26,1.85-2.35,4.27-2.35,5.2s.5,1.04,3.94.71c1.54-.17,3.51-.21,4.37-.12,2.06.21,4.72,1.09,6.17,2.02,2.66,1.71,5.15,5.25,5.91,8.33.45,1.95.74,6.43.59,9.28l-.17,2.78-4.44,2.23c-6.95,3.51-9.4,5.13-15.31,10.04-6.65,5.51-13.15,15.17-14.48,21.53-.64,3.01-.95,7.95-.64,10.63.74,6.62,2.94,10.61,8.07,14.57,2.16,1.69,2.75,2.37,3.13,3.73.26.83.4.83-2.78-.14-2.87-.85-4.06-1-4.25-.5-.12.31.31.83,1.66,2.06,1.16,1.07,2.37,2.49,3.39,4.06,1.76,2.63,5.01,6.1,7.36,7.81,1.92,1.42,4.25,2.37,8.28,3.39,3.8.95,6.62,2.25,10.66,4.87,2.18,1.42,2.73,1.66,3.32,1.57.93-.19,1.85-1.31,2.61-3.16.52-1.35.59-1.83.59-4.77,0-2.56-.07-3.37-.38-3.8-.43-.62-1.09-.69-1.54-.14-.36.43-1.95,1.28-2.4,1.28-.76,0-4.41-4.44-6.46-7.79-.59-.97-.9-1.85-1.07-2.92-.47-3.35-1.14-4.49-2.87-4.96-1.71-.45-2.9-2.21-4.39-6.41-.47-1.38-1.02-2.63-1.19-2.82-.83-.85-1.33.43-1.69,4.2l-.14,1.76-1.04-1.02c-1.52-1.5-3.51-4.41-4.13-6.03-.81-2.14-.78-5.39.07-7.43,1.35-3.28,4.44-6.86,6.91-8.09,1.61-.78,4.2-1.14,6.27-.81,1.21.19,2.16.55,3.63,1.38,1.09.62,2.97,1.66,4.13,2.33,1.19.66,2.82,1.66,3.68,2.21,2.14,1.35,4.87,2.71,6.29,3.09.66.19,2.42.33,3.92.33,1.69.02,2.92.12,3.23.31.81.45,2.4,2.52,2.56,3.3.52,2.61-.55,4.2-3.92,5.91-3.04,1.52-4.72,2.97-5.79,4.98-1.35,2.59-1.97,7.36-1.16,8.95.19.43.43.76.47.76.31,0,.81-.71.93-1.33.43-1.83.64-2.25,1.12-2.18.38.05.74.69,1.61,2.85,1.21,3.04,1.5,3.51,2.16,3.51.43,0,.45-.24.45-3.44,0-3.92.24-4.84,1.4-5.44.93-.5,2.16-.47,2.78.05.52.4,1.52,2.25,1.52,2.82,0,.17.21.31.47.31.45,0,.47-.17.47-2.25,0-2.47-.24-3.2-1.64-4.96-.76-.95-.93-1.92-.5-2.78.24-.43.55-.45,4.72-.45s4.46-.02,4.96-.55c.66-.71.66-1.02-.09-2.11-1.04-1.47-1.85-5.03-1.33-5.79.09-.14.4-.36.71-.45,1.73-.52,5.65,7.33,5.93,11.91.19,3.39-.76,9.61-2.14,13.72-1.76,5.27-3.16,7.26-10.06,14.34-4.27,4.37-7.62,7.29-15.29,13.32-7.14,5.6-16.33,14.1-20.15,18.63-6.46,7.67-9.07,16-8.12,25.99.83,8.69,3.16,14.15,8.78,20.53,1.47,1.66,4.89,4.75,6.43,5.79,4.49,3.04,10.59,5.01,15.55,5.01,2.63,0,7.24-.43,7.57-.69.14-.12.64-.28,1.09-.38,1.71-.36,5.74-2.09,7.48-3.23,2.61-1.69,3.82-2.71,5.86-4.91,2.23-2.37,3.32-3.99,4.65-6.84,1.59-3.37,2.02-5.89,1.85-11.01-.38-13.58-1-18.73-2.78-23.47-.5-1.38-1.16-2.63-1.42-2.63-.5,0-.52.07-.36,2.06.09,1.16.21,2.3.28,2.56s.13,2.67-1.58,1.13c-.95-.87-2.43-2.49-4-5.12-.88-1.45-1.38-2.06-1.71-2.06-.38,0-.45.17-.45,1.19,0,.85.34,1.41.1,1.41-.19,0-.6-.42-.81-.56-.3-.34-3.81-3.24-6.04-4.83-1.45-1.02-2.04-1.23-2.04-.69,0,.31.45.85,2.9,3.39.88.95,1.61,1.83,1.61,1.97,0,.66-.88.45-3.58-.81-1.69-.81-2.97-1.26-3.09-1.14s.03.57.68,1.22c0,0,1.38,1.5.85,1.44-.1-.01-1.09-.04-1.09-.04-1.58-.03-3.98.78-3.98,1.02,0,.45.69.59,3.2.62,2.13-.03,4.49.43,8.28,2.23,4.3,2.06,6.47,4.16,9.01,7.93,1.21,1.84,1.64,3.89,1.92,8.24.38,5.72-.56,10.25-2.08,13.86-1.92,3.77-5.08,6.62-10.02,9.04-3.16,1.54-5.58,2.14-9.38,2.35-2.94.14-3.44.12-5.93-.45-4.01-.9-6.03-1.97-8.97-4.77-4.34-4.13-6.31-7.36-8-13.08-.78-2.61-1.07-7.45-.62-10.56.33-2.18,1.66-6.5,2.44-7.81.26-.45.71-1.21.95-1.66,1.54-2.73,4.51-6.03,7.79-8.64,6.17-4.91,11.16-8.31,18.51-12.6,7.43-4.32,12.6-8.09,20.32-14.83,4.56-3.99,7.22-7.38,12.1-15.52,3.04-5.01,5.89-11.04,7.33-15.48.95-2.87,2.06-10.73,2.06-14.45,0-5.13-1.19-11.08-2.99-15.07-.57-1.23-1.12-2.52-1.21-2.85-.59-1.95-4.08-7.48-6.93-10.97-1.66-2.04-7.12-7.33-9.09-8.83-.85-.64-2.37-1.64-3.37-2.23-1.12-.62-1.85-1.21-1.85-1.45,0-.52.88-1.9,1.31-2.06.55-.21,3.32.36,5.58,1.16,5.29,1.85,11.3,5.6,18.49,11.54,1.73,1.45,3.25,2.56,3.37,2.49.38-.21.24-1.71-.28-2.99-.28-.69-.62-1.64-.74-2.09-.36-1.23-2.68-5.51-4.41-8.05-1.85-2.75-3.68-5.01-6.93-8.57-5.22-5.74-8.07-9.42-8.52-11.01-.36-1.33.17-2.3,1.85-3.44,2.52-1.71,5.77-2.28,10.73-1.92,6.1.47,11.8,2.16,18.73,5.53,8.9,4.34,16.35,10.51,20.44,16.9,2.35,3.66,5.89,10.23,6.88,12.75.26.66.66,1.66.9,2.18.24.55.61,1.22.8,1.64.11.24.46,1,.7,1.14,0,0,.49.58.33-.66-.14-.93-.93-7.38-1.21-9.92-.45-4.03-2.47-13.05-3.89-17.33-3.28-9.94-9.14-21.69-15.71-31.45-3.47-5.15-6.43-8.88-10.44-13.13-7.03-7.41-14.34-12.84-20.63-15.31-2.23-.88-6.55-2.04-9.38-2.52-4.87-.83-7.14-.78-20.15.45-7.24.69-7.43.69-8.09-.59-1.85-3.58-1.76-11.3.24-18.16,2.37-8.16,8.54-18.11,15.48-24.99,1.35-1.33,2.4-2.54,2.33-2.66-.14-.21-9.26-.28-11.99-.07Z"/><path class="cls-2" d="m297.13,498.43c-.21.17-.74.78-1.19,1.38l-.81,1.04-.12-1.16c-.09-1-.21-1.21-.64-1.26-.45-.07-.57.12-.97,1.42-.26.83-.55,2.4-.64,3.51s-.31,2.33-.47,2.73l-.31.71-.43-1.02c-.45-1.12-.88-1.26-1.31-.47-.43.81-.12,6.12.47,8,.33,1.09.4,1.66.24,1.97-.33.62-.64.55-1.5-.4-.43-.45-.85-.76-.93-.66-.55.55.55,3.49,2.02,5.39,1.61,2.06,3.16,3.68,3.32,3.51.09-.09,0-1.66-.19-3.49-.38-3.56-.31-6.34.28-9.85.45-2.61.59-3.04,2.37-7.1,1.73-3.89,1.97-5.22.78-4.25Z"/><path class="cls-2" d="m393.95,508.26c-.09.19-.05.76.09,1.26,1.69,5.84,1.97,7.97,1.83,12.79-.26,8.24-2.09,14.91-7.19,26.11-1.78,3.87-6.81,11.75-10.21,15.95-1.59,1.95-4.15,4.41-6.43,6.19-1.09.85-2.16,1.8-2.37,2.11,0,0-.2.33-.14.43.1.14.7.02.7.02.52-.07,1.69-.57,2.61-1.12,1.57-.93,3.2-1.31,3.2-.74,0,.12-.28.93-.62,1.76-.66,1.57-.64,2.18.07,2.44.28.12.74-.21,1.61-1.16,1.99-2.14,3.37-4.44,5.22-8.76,1.78-4.13,2.78-6,3.99-7.48.85-1.02,1.85-1.12,2.47-.19.38.59.38.78.02,3.28-.33,2.23-.33,2.68-.07,2.97,1.4,1.42,5.06-4.41,6.5-10.32,1.78-7.31,1.76-7.07,1.57-12.2-.17-4.91-.09-5.53.83-5.82.76-.24,1.42.31,2.06,1.69.81,1.8,1.76,1.73,2.04-.14.14-1.07-1.04-8.12-1.97-11.63-1.66-6.29-1.54-5.67-1.09-6.12.4-.38.47-.33,1.33.64,1.61,1.85,2.11.81,1.16-2.44-.83-2.75-1.78-4.32-4.91-7.93-1.5-1.73-2.11-2.16-2.33-1.59Z"/><path class="cls-2" d="m349.53,601.06c0,.17.97.48,1.75.96.78.5,2.14,1.42,1.98,1.53-.09.07-.85-.07-1.78.07-.77.11-1.34.23-1.41.45-.21.52.33.6,2.3,1.05.97.24,1.91.63,2.32.79.49.19,2.04,1.01,1.26.82-.2-.05-1.16-.12-1.76-.15-1.19-.07-1.72.06-1.77.37-.09.55.4.78,4.53,2.11,1.95.62,4.11,1.47,4.82,1.88.69.38,1.33.71,1.4.71.57,0-1.09-3.2-2.63-5.08-1.78-2.14-5.17-4.3-8.38-5.34-1.76-.57-2.63-.64-2.63-.17Z"/></g><path class="cls-9" d="m310.62,541.93c.35-.49,2.53.2,2.87.69,1.03,1.46,1.98,3.24,1.56,3.66,0,0-2.94-1.75-4.12-2.92l-.32-1.43Z"/><g><path class="cls-7" d="m233.28,631.69c-3.86-2.75-9.36-5.63-17.02-6.51-7-.8-8.68,4.32-8.68,4.32-1.91,9.27,11.11,17.2,34.89,20.73,23.54,3.49,98.35,4.23,98.35,4.23v45.32s-75.36-2.57-100.44-4.16c-32.43-2.06-38.24-20.28-38.24-20.28l5.44-45.85"/><path class="cls-7" d="m448.97,631.69s7.8-5.51,16.42-6.57c7-.86,8.68,4.32,8.68,4.32,1.91,9.27-11.11,17.2-34.89,20.73-23.54,3.49-98.35,4.23-98.35,4.23v45.32s75.36-2.57,100.44-4.16c32.43-2.06,38.24-20.28,38.24-20.28l-5.44-45.85"/><polygon class="cls-6" points="337.8 659.45 347.14 659.34 345.64 694.49 340.83 694.78 335.72 694.59 337.8 659.45"/></g><text class="cls-10" transform="translate(272.57 688.38)"><tspan x="0" y="0">Wyverten</tspan></text><path class="cls-5" d="m456.58,615.81c-3.31,7.91-8.48,18.08-14.05,26.82"/><path class="cls-5" d="m225.36,616.53c3.31,7.91,8.48,17.81,14.05,26.55"/></svg>