<?xml version="1.0" encoding="UTF-8"?><svg id="einzeln" xmlns="http://www.w3.org/2000/svg" viewBox="0 0 773.47 828.14"><defs><style>.cls-1{fill:#16140a;}</style></defs><g id="zs"><path class="cls-1" d="m346.72,483.36s-1.65-.17-1.65-1.65c0-1.82,1.39-3.21,2.95-3.73,1.65-.52,4.16-.09,5.11,1.65.87,1.65,1.73,5.2-2.6,7.19-4.33,1.99-4.94,2.17-10.75,3.81-5.63,1.65-10.83,3.64-12.83,5.81-1.65,1.73-3.81,6.07,1.04,11.09,4.51,4.59,12.83,5.55,12.83,5.55v-1.99s-5.11-.43-8.06-3.73-1.82-10.4,7.11-12.31c7.37-1.56,16.29-2.51,19.06-6.85s1.56-8.15-1.82-11.96-7.19-6.93-11.27-6.24-6.33,4.94-5.63,8.67c1.21,7.11,6.5,4.68,6.5,4.68Z"/><path class="cls-1" d="m351.52,513.08v-1.12s1.47.14,4-1.89c3.09-2.45,4.49-6.8,4.14-8.7-.35-1.89-1.82-4.77-4.7-3.44-2.88,1.33-2.52,3.37-2.31,3.86s.91,1.75,2.24,1.19.7-1.61.7-1.61c0,0,1.12.77.56,1.82-.56,1.05-2.1.91-2.73.84s-3.37-.91-2.88-4,2.1-4.35,3.86-4.77c1.68-.42,3.3-.42,4.91.7s2.52,3.72,1.54,6.94-2.88,6.38-4.49,7.78c-1.68,1.61-3.44,2.38-4.84,2.38Z"/><path class="cls-1" d="m344.85,545.96l1.04-39.34s.09-1.39.43-1.39c.35.09.69,2.77.69,2.77l.78,37.96s-.43,1.21-1.47,1.13c-1.04,0-1.47-1.13-1.47-1.13Z"/><polygon class="cls-1" points="322.52 482.41 324.69 477.88 324.8 475.91 334.86 474.09 334.03 469.92 318.55 472.9 322.52 482.41"/><polygon class="cls-1" points="362.13 469.02 376.49 468.72 369.85 475.14 366.27 473.56 367.26 472.64 362.13 472.88 362.13 469.02"/><polygon class="cls-1" points="330.7 517.1 327.46 521.58 336.54 518.13 336.4 520.49 327.39 526.13 316.87 529.61 327.46 514.71 330.7 517.1"/><polygon class="cls-1" points="357.27 522.92 369.12 522.71 372.99 517.27 370.78 526.64 357.27 527.05 357.27 522.92"/></g></svg>